<svg xmlns="http://www.w3.org/2000/svg" viewBox="0 0 160 160" role="img" aria-labelledby="title desc">
  <title id="title">Luke's Guide Services logo</title>
  <desc id="desc">A rustic circular badge featuring a largemouth bass silhouette jumping over southeast Texas</desc>
  <defs>
    <linearGradient id="sky" x1="0" y1="0" x2="0" y2="1">
      <stop offset="0" stop-color="#0D1B2A" />
      <stop offset="1" stop-color="#2E5339" />
    </linearGradient>
  </defs>
  <circle cx="80" cy="80" r="76" fill="url(#sky)" stroke="#D9CBBE" stroke-width="8" />
  <path d="M125.6 79.3c-2.9 6.6-10 12.8-18.6 16.4-12.4 5.1-28.4 6.6-43.5-4.3-3.2-2.3-6.1-5.1-8.6-8.1-6.1 3.8-9.4 8.8-9.4 8.8s-7.7-6.6-10.1-19.5c-2.5-12.9 3.1-27.4 17.8-34.6 14.7-7.2 28-3.3 37 2.8 0 0 15.5-6.6 25.5-2.4 0 0-5.3 5.9-11.6 9.7 5.5 4.7 9.2 10.9 10.5 17.2 0.9 4.2 0.7 8.4-0.5 12z" fill="#D9CBBE"/>
  <path d="M55 108c5.6 6.5 17.7 14.5 32.9 15.6 10.4 0.7 21.7-2.4 31.2-9.1l3.5 6.5c-10.4 7.3-22.5 11-35.3 10-15.2-1.1-29.6-9.4-39.2-20.9L55 108z" fill="#D9CBBE" opacity="0.6"/>
  <text x="80" y="150" text-anchor="middle" font-family="'Montserrat', sans-serif" font-size="20" fill="#D9CBBE" letter-spacing="1.5">LUKE'S</text>
</svg>
